<?xml version="1.0" encoding="UTF-8"?>
<svg class="cloud" enable-background="new 0 0 36 36" version="1.1" viewBox="0 0 36 36" xml:space="preserve" xmlns="http://www.w3.org/2000/svg">
  <g
     transform="translate(-0.45478595,-0.90579)">
    <g
       transform="translate(-265.14056,447.46829)">
      <path class="cloud-outline"
         d="m 280.49281,-445.60876 c -2.27083,0 -4.10991,1.55028 -4.71875,3.625 -0.69323,-0.36383 -1.44451,-0.625 -2.28125,-0.625 -2.76,0 -5.00001,2.23999 -5,5 0,0.57893 0.16252,1.1077 0.34375,1.625 -5.4635,4.95793 -0.4573,12.46846 5.46875,9.875 0.60884,2.07472 2.44792,3.625 4.71875,3.625 2.27083,0 4.10991,-1.55028 4.71875,-3.625 0.69323,0.36383 1.44451,0.625 2.28125,0.625 1.70049,0 3.22157,-0.82665 4.125,-2.125 2.41037,-0.0839 4.34375,-2.06928 4.34375,-4.5 0,-1.686 -0.97028,-3.10426 -2.34375,-3.875 0.18124,-0.51729 0.34375,-1.04608 0.34375,-1.625 0,-2.76 -2.24,-4.99999 -5,-5 -0.83674,0 -1.58802,0.26117 -2.28125,0.625 -0.60884,-2.07472 -2.44792,-3.625 -4.71875,-3.625 z"
 />
    </g>
    <g
       transform="matrix(0.8431087,0,0,0.8431087,-228.68007,383.12709)"
       id="g3471">
      <path
         d="m 280.34208,-441.55218 c -3.57938,0 -6.46875,2.92063 -6.46875,6.5 0.56489,7.86549 12.10561,7.59199 12.96875,-0.0312 0,-3.57938 -2.92063,-6.46875 -6.5,-6.46875 z"
 />
    </g>
    <g
       transform="translate(-272.80099,442.94177)">
      <g
         transform="translate(8.006368,3.8993882)">
        <path
           d="m 291.6875,-437.59375 c 0,1.82944 -1.48306,3.3125 -3.3125,3.3125 -1.82944,0 -3.3125,-1.48306 -3.3125,-3.3125 0,-1.82944 1.48306,-3.3125 3.3125,-3.3125 1.82944,0 3.3125,1.48306 3.3125,3.3125 z"
           transform="matrix(1.0566,0,0,1.0566,-17.1981,24.8632)" />
      </g>
      <g
         transform="matrix(1.14286,0,0,1.14286,-16.48064,93.910907)"
         />
      <g
         transform="matrix(1.3252462,0,0,1.2778145,-94.229102,135.80671)">
        <path
           d="m 291.6875,-437.59375 c 0,1.82944 -1.48306,3.3125 -3.3125,3.3125 -1.82944,0 -3.3125,-1.48306 -3.3125,-3.3125 0,-1.82944 1.48306,-3.3125 3.3125,-3.3125 1.82944,0 3.3125,1.48306 3.3125,3.3125 z"
           transform="matrix(1.0566,0,0,1.0566,-17.1981,24.8632)" />
      </g>
      <g
         transform="translate(7.065258,3.9467712)">
        <path
           d="m 291.6875,-437.59375 c 0,1.82944 -1.48306,3.3125 -3.3125,3.3125 -1.82944,0 -3.3125,-1.48306 -3.3125,-3.3125 0,-1.82944 1.48306,-3.3125 3.3125,-3.3125 1.82944,0 3.3125,1.48306 3.3125,3.3125 z"
           transform="matrix(1.0566,0,0,1.0566,-31.1982,24.8633)" />
      </g>
      <g
         transform="translate(7.512122,3.3893522)">
        <path
           d="m 291.6875,-437.59375 c 0,1.82944 -1.48306,3.3125 -3.3125,3.3125 -1.82944,0 -3.3125,-1.48306 -3.3125,-3.3125 0,-1.82944 1.48306,-3.3125 3.3125,-3.3125 1.82944,0 3.3125,1.48306 3.3125,3.3125 z"
           transform="matrix(1.0566,0,0,1.0566,-24.1982,21.8633)" />
      </g>
    </g>
    <g
       transform="matrix(-1,0,0,-1,313.18084,-392.62661)" />
    <g
       transform="matrix(1.0923463,0,0,1.0923463,-292.27097,488.08705)"
       >
      <path
         d="m 280.34208,-441.55218 c -3.57938,0 -6.46875,2.92063 -6.46875,6.5 0.56489,7.86549 12.10561,7.59199 12.96875,-0.0312 0,-3.57938 -2.92063,-6.46875 -6.5,-6.46875 z"
 />
    </g>
    <g
       transform="translate(-260.59425,450.50904)"
>
      <path
         d="m 280.34208,-441.55218 c -3.57938,0 -6.46875,2.92063 -6.46875,6.5 0.56489,7.86549 12.10561,7.59199 12.96875,-0.0312 0,-3.57938 -2.92063,-6.46875 -6.5,-6.46875 z"
 />
    </g>
  </g>
</svg>

